<?xml version="1.0" encoding="utf-8"?>
<!-- Generator: Adobe Illustrator 23.0.3, SVG Export Plug-In . SVG Version: 6.00 Build 0)  -->
<svg version="1.1" id="Layer_1" xmlns="http://www.w3.org/2000/svg" xmlns:xlink="http://www.w3.org/1999/xlink" x="0px" y="0px"
	 viewBox="0 0 2000 1581" style="enable-background:new 0 0 2000 1581;" xml:space="preserve">
<style type="text/css">
	.st0{fill:#FFFFFF;}
</style>
<g>
	<g>
		<g>
			<path class="st0" d="M1994.7,1572.3c2.9,5.1,0.5,9.3-5.4,9.3H564.6c-5.9,0-7.9-3.9-4.5-8.7l140.5-197.3c3.4-4.8,11-8.7,16.8-8.7
				h396.5c5.9,0,8.3-4.2,5.4-9.3L818.6,828.7c-2.9-5.1-8-5.3-11.4-0.5l-521.6,744.8c-3.4,4.8-10.9,8.7-16.8,8.7l-258.2,0.2
				c-5.9,0-7.9-3.9-4.6-8.7L818.9,405.9c3.4-4.8,8.5-4.6,11.4,0.5l544,952.7c2.9,5.1,10.1,9.2,15.9,9.2l228.7-1.2
				c5.9,0,8.3-4.2,5.4-9.3l-398.5-702.5c-2.9-5.1-2.5-13.2,1-17.9L1353.4,461c3.4-4.8,8.6-4.5,11.5,0.6L1994.7,1572.3z"/>
		</g>
		<g>
			<path class="st0" d="M967.1,205.5c-3-5.1-2.6-13.1,0.8-17.9L1094.3,9.2c3.4-4.8,8.6-4.6,11.5,0.5l116.9,200.1
				c3,5.1,2.6,13.1-0.7,17.9l-125.2,179.2c-3.4,4.8-8.5,4.6-11.5-0.5L967.1,205.5z"/>
		</g>
	</g>
</g>
</svg>
